# xmcd
#
# Track frame offsets:
#	150
#	11918
#	20833
#	30393
#	40556
#	50059
#	59407
#	69724
#	81066
#	90655
#	99745
#	109549
#
# Disc length: 1573 seconds
#
# Revision: 0
# Processed by: cddbd v1.5.2PL0 Copyright (c) Steve Scherf et al.
# Submitted via: EasyCDDAExtractor 15.2.5.1
#
DISCID=9906230c
DTITLE=mr. gasser and the weirdos - hot rod hootenanny
DYEAR=1900
DGENRE=
TTITLE0=hot rod hootenanny
TTITLE1=the fastest shift alive
TTITLE2=you ain't nothing but a honda
TTITLE3=mr. gasser
TTITLE4=mad'vette
TTITLE5=termites in my woody
TTITLE6=eefen' it don't go - chrome it
TTITLE7=1320
TTITLE8=weirdo wiggle
TTITLE9=dragnutz
TTITLE10=chopped nash
TTITLE11=my coupe eefen' talks
EXTD=
EXTT0=
EXTT1=
EXTT2=
EXTT3=
EXTT4=
EXTT5=
EXTT6=
EXTT7=
EXTT8=
EXTT9=
EXTT10=
EXTT11=
PLAYORDER=
